<?xml version="1.0" ?><svg id="Icons" viewBox="0 0 48 48" xmlns="http://www.w3.org/2000/svg"><defs><style>.cls-1,.cls-11{fill:#adc4d9;}.cls-2{fill:#c0dceb;}.cls-3{fill:#8ca4b8;}.cls-4{fill:none;}.cls-10,.cls-11,.cls-12,.cls-4,.cls-6,.cls-7,.cls-8{stroke:#45413c;stroke-linecap:round;stroke-linejoin:round;}.cls-5,.cls-9{fill:#45413c;}.cls-5{opacity:0.15;}.cls-6{fill:#fff;}.cls-7{fill:#00dba8;}.cls-8{fill:#00b8f0;}.cls-10{fill:#ff6242;}.cls-12{fill:#ffe500;}.cls-13{fill:#daedf7;}</style></defs><title/><g data-name="&lt;Group&gt;" id="_Group_"><rect class="cls-1" data-name="&lt;Rectangle&gt;" height="27.62" id="_Rectangle_" rx="4.87" ry="4.87" width="29.25" x="9.38" y="16.85"/><path class="cls-2" d="M33.75,16.85H14.25a4.88,4.88,0,0,0-4.87,4.88v2.44a4.87,4.87,0,0,1,4.87-4.88h19.5a4.87,4.87,0,0,1,4.87,4.88V21.73A4.88,4.88,0,0,0,33.75,16.85Z" data-name="&lt;Path&gt;" id="_Path_"/><path class="cls-3" d="M38.62,32.7H27.25A3.26,3.26,0,0,1,24,29.45V16.85h9.75a4.88,4.88,0,0,1,4.87,4.88Z" data-name="&lt;Path&gt;" id="_Path_2"/><path class="cls-1" d="M38.41,20.28a4.88,4.88,0,0,0-4.66-3.43H24v2.44h9.75a4.87,4.87,0,0,1,4.87,4.88V21.73A4.94,4.94,0,0,0,38.41,20.28Z" data-name="&lt;Path&gt;" id="_Path_3"/><rect class="cls-4" data-name="&lt;Rectangle&gt;" height="27.62" id="_Rectangle_2" rx="4.87" ry="4.87" width="29.25" x="9.38" y="16.85"/><ellipse class="cls-5" cx="24" cy="45.5" data-name="&lt;Ellipse&gt;" id="_Ellipse_" rx="15.5" ry="1.5"/><circle class="cls-6" cx="16.28" cy="24.98" data-name="&lt;Ellipse&gt;" id="_Ellipse_2" r="4.06"/><circle class="cls-7" cx="16.28" cy="24.98" data-name="&lt;Ellipse&gt;" id="_Ellipse_3" r="2.03"/><circle class="cls-6" cx="31.72" cy="24.98" data-name="&lt;Ellipse&gt;" id="_Ellipse_4" r="4.06"/><circle class="cls-8" cx="31.72" cy="24.98" data-name="&lt;Ellipse&gt;" id="_Ellipse_5" r="1.62"/><path class="cls-9" d="M36.62,29.76a.5.5,0,0,0,0,1,.5.5,0,0,0,0-1Z"/><path class="cls-9" d="M26,29.76a.5.5,0,1,0,.5.5.5.5,0,0,0-.5-.5Z"/><path class="cls-9" d="M26,18.35a.5.5,0,0,0-.5.5.5.5,0,0,0,1,0,.5.5,0,0,0-.5-.5Z"/><polyline class="cls-4" data-name="&lt;Path&gt;" id="_Path_4" points="24 14 24 11.56 28.47 10.34 23.19 5.47 30.91 7.5 32.2 4.92"/><circle class="cls-10" cx="32.94" cy="3.03" data-name="&lt;Ellipse&gt;" id="_Ellipse_6" r="2.03"/><path class="cls-4" d="M38.62,32.7H27.25A3.26,3.26,0,0,1,24,29.45V16.85h9.75a4.88,4.88,0,0,1,4.87,4.88Z" data-name="&lt;Path&gt;" id="_Path_5"/><line class="cls-4" data-name="&lt;Line&gt;" id="_Line_" x1="31.72" x2="31.72" y1="22.13" y2="23.35"/><line class="cls-4" data-name="&lt;Line&gt;" id="_Line_2" x1="34.56" x2="33.34" y1="24.98" y2="24.98"/><line class="cls-4" data-name="&lt;Line&gt;" id="_Line_3" x1="31.72" x2="31.72" y1="27.82" y2="26.6"/><line class="cls-4" data-name="&lt;Line&gt;" id="_Line_4" x1="28.87" x2="30.09" y1="24.98" y2="24.98"/><path class="cls-11" d="M29.69,16.85H18.31A2.85,2.85,0,0,1,21.16,14h5.68A2.85,2.85,0,0,1,29.69,16.85Z" data-name="&lt;Path&gt;" id="_Path_6"/><path class="cls-12" d="M38.62,24.17h.81a2.44,2.44,0,0,1,2.44,2.44v8.12a2.44,2.44,0,0,1-2.44,2.44h-.81a0,0,0,0,1,0,0v-13A0,0,0,0,1,38.62,24.17Z" data-name="&lt;Rectangle&gt;" id="_Rectangle_3"/><path class="cls-12" d="M6.13,24.17h.81A2.44,2.44,0,0,1,9.38,26.6v8.12a2.44,2.44,0,0,1-2.44,2.44H6.13a0,0,0,0,1,0,0v-13A0,0,0,0,1,6.13,24.17Z" data-name="&lt;Rectangle&gt;" id="_Rectangle_4" transform="translate(15.5 61.33) rotate(180)"/><rect class="cls-2" height="8.5" rx="1.5" ry="1.5" width="20" x="14" y="37"/><path class="cls-13" d="M32.5,37h-17A1.5,1.5,0,0,0,14,38.5v2A1.5,1.5,0,0,1,15.5,39h17A1.5,1.5,0,0,1,34,40.5v-2A1.5,1.5,0,0,0,32.5,37Z"/><rect class="cls-4" height="8.5" rx="1.5" ry="1.5" width="20" x="14" y="37"/><path class="cls-9" d="M16,38.5a.5.5,0,1,0,.5.5.5.5,0,0,0-.5-.5Z"/><path class="cls-9" d="M32,38.5a.5.5,0,1,0,.5.5.5.5,0,0,0-.5-.5Z"/></g></svg>